<mxfile host="Electron" modified="2024-04-20T17:57:31.393Z" agent="Mozilla/5.0 (Windows NT 10.0; Win64; x64) AppleWebKit/537.36 (KHTML, like Gecko) draw.io/23.0.2 Chrome/120.0.6099.109 Electron/28.1.0 Safari/537.36" etag="TtLHNR_tjxU_p2lDUjCC" version="23.0.2" type="device">
  <diagram name="Página-1" id="FHciZqztbA-HMaa2nyYn">
    <mxGraphModel dx="1195" dy="697" grid="1" gridSize="10" guides="1" tooltips="1" connect="1" arrows="1" fold="1" page="1" pageScale="1" pageWidth="827" pageHeight="1169" math="0" shadow="0">
      <root>
        <mxCell id="0" />
        <mxCell id="1" parent="0" />
        <mxCell id="SK4cdpnV5knB0nuIWprD-5" value="Usuario" style="swimlane;childLayout=stackLayout;horizontal=1;startSize=50;horizontalStack=0;rounded=1;fontSize=14;fontStyle=0;strokeWidth=2;resizeParent=0;resizeLast=1;shadow=0;dashed=0;align=center;arcSize=4;whiteSpace=wrap;html=1;" parent="1" vertex="1">
          <mxGeometry x="70" y="145" width="160" height="135" as="geometry" />
        </mxCell>
        <mxCell id="SK4cdpnV5knB0nuIWprD-6" value="UserID PK&lt;br&gt;Email UNIQUE&lt;br&gt;PasswordHash&lt;br&gt;Nombre&lt;br&gt;Apellidos&lt;br&gt;" style="align=left;strokeColor=none;fillColor=none;spacingLeft=4;fontSize=12;verticalAlign=top;resizable=0;rotatable=0;part=1;html=1;" parent="SK4cdpnV5knB0nuIWprD-5" vertex="1">
          <mxGeometry y="50" width="160" height="85" as="geometry" />
        </mxCell>
        <mxCell id="SK4cdpnV5knB0nuIWprD-7" value="Entrada" style="swimlane;childLayout=stackLayout;horizontal=1;startSize=50;horizontalStack=0;rounded=1;fontSize=14;fontStyle=0;strokeWidth=2;resizeParent=0;resizeLast=1;shadow=0;dashed=0;align=center;arcSize=4;whiteSpace=wrap;html=1;" parent="1" vertex="1">
          <mxGeometry x="580" y="150" width="160" height="120" as="geometry" />
        </mxCell>
        <mxCell id="SK4cdpnV5knB0nuIWprD-8" value="EntradaID | PK&lt;br&gt;UserID | FK a Usuario&lt;br&gt;EventoID |FK a Eventos&lt;br&gt;UUID | UNIQUE (QR)&lt;br&gt;" style="align=left;strokeColor=none;fillColor=none;spacingLeft=4;fontSize=12;verticalAlign=top;resizable=0;rotatable=0;part=1;html=1;" parent="SK4cdpnV5knB0nuIWprD-7" vertex="1">
          <mxGeometry y="50" width="160" height="70" as="geometry" />
        </mxCell>
        <mxCell id="SK4cdpnV5knB0nuIWprD-13" value="Evento" style="swimlane;childLayout=stackLayout;horizontal=1;startSize=50;horizontalStack=0;rounded=1;fontSize=14;fontStyle=0;strokeWidth=2;resizeParent=0;resizeLast=1;shadow=0;dashed=0;align=center;arcSize=4;whiteSpace=wrap;html=1;" parent="1" vertex="1">
          <mxGeometry x="310" y="140" width="160" height="140" as="geometry" />
        </mxCell>
        <mxCell id="SK4cdpnV5knB0nuIWprD-14" value="EventoID | PK&lt;br&gt;Nombre&lt;br&gt;Descripcion&lt;br&gt;Fecha&lt;br&gt;Lugar&lt;br&gt;" style="align=left;strokeColor=none;fillColor=none;spacingLeft=4;fontSize=12;verticalAlign=top;resizable=0;rotatable=0;part=1;html=1;" parent="SK4cdpnV5knB0nuIWprD-13" vertex="1">
          <mxGeometry y="50" width="160" height="90" as="geometry" />
        </mxCell>
        <mxCell id="SK4cdpnV5knB0nuIWprD-16" value="Se podra actualizar el correo electronico&amp;nbsp;&lt;div&gt;y contraseña del usuario&lt;/div&gt;&lt;div&gt;Metodos: Get, Post, Put, Delete&lt;/div&gt;" style="text;html=1;align=center;verticalAlign=middle;resizable=0;points=[];autosize=1;strokeColor=none;fillColor=none;" parent="1" vertex="1">
          <mxGeometry x="30" y="280" width="240" height="60" as="geometry" />
        </mxCell>
        <mxCell id="SK4cdpnV5knB0nuIWprD-17" value="Se podrán comprar entradas y listarlas.&lt;div&gt;Metodos: Get, post&lt;/div&gt;" style="text;html=1;align=center;verticalAlign=middle;resizable=0;points=[];autosize=1;strokeColor=none;fillColor=none;" parent="1" vertex="1">
          <mxGeometry x="600" y="310" width="160" as="geometry" />
        </mxCell>
        <mxCell id="SK4cdpnV5knB0nuIWprD-18" value="Elecciones extensibles en el formulario&amp;nbsp;&lt;div&gt;al comprar las entradas&lt;/div&gt;" style="text;html=1;align=center;verticalAlign=middle;resizable=0;points=[];autosize=1;strokeColor=none;fillColor=none;" parent="1" vertex="1">
          <mxGeometry x="320" y="300" width="160" as="geometry" />
        </mxCell>
      </root>
    </mxGraphModel>
  </diagram>
</mxfile>
